<svg width="24" height="26" viewBox="0 0 24 26" fill="none" xmlns="http://www.w3.org/2000/svg">
<path d="M21.9141 15.9167V5.99999C21.9141 4.71133 20.8694 3.66666 19.5807 3.66666H3.24739C1.95873 3.66666 0.914061 4.71132 0.914061 5.99999V20C0.914061 21.2887 1.95873 22.3333 3.24739 22.3333H11.9974" stroke="#121219" stroke-width="1.75"/>
<path d="M17.2461 1.33331V5.99998" stroke="#121219" stroke-width="1.75" stroke-linecap="round"/>
<path d="M5.58203 1.33331V5.99998" stroke="#121219" stroke-width="1.75" stroke-linecap="round"/>
<path d="M23.0807 18.8333C23.0807 15.6116 20.4691 13 17.2474 13C14.0257 13 11.4141 15.6116 11.4141 18.8333C11.4141 22.055 14.0257 24.6666 17.2474 24.6666C20.4691 24.6666 23.0807 22.055 23.0807 18.8333Z" stroke="#121219" stroke-width="1.75"/>
<path d="M17.2461 15.9955V18.8334L19.138 20.7253" stroke="#121219" stroke-width="1.75" stroke-linecap="round" stroke-linejoin="round"/>
</svg>
