<svg width="66" height="65" viewBox="0 0 66 65" fill="none" xmlns="http://www.w3.org/2000/svg">
<path d="M33.0013 61.6147C16.9409 61.6147 3.88672 48.5605 3.88672 32.5001C3.88672 16.4397 16.9409 3.3855 33.0013 3.3855C49.0617 3.3855 62.1159 16.4397 62.1159 32.5001C62.1159 48.5605 49.0617 61.6147 33.0013 61.6147ZM33.0013 7.448C19.1888 7.448 7.94922 18.6876 7.94922 32.5001C7.94922 46.3126 19.1888 57.5522 33.0013 57.5522C46.8138 57.5522 58.0534 46.3126 58.0534 32.5001C58.0534 18.6876 46.8138 7.448 33.0013 7.448Z" fill="#E65100"/>
<path d="M22.3203 22.2251L22.3203 43.3501C22.3203 44.9057 23.5814 46.1667 25.137 46.1667H40.6286C42.1842 46.1667 43.4453 44.9057 43.4453 43.3501V22.2251" stroke="#9E9E9E" stroke-width="2.1125"/>
<path d="M30.0625 30.675V37.7167" stroke="#9E9E9E" stroke-width="2.1125" stroke-linecap="round"/>
<path d="M35.6953 30.675V37.7167" stroke="#9E9E9E" stroke-width="2.1125" stroke-linecap="round"/>
<path d="M19.5 22.2251H46.2583" stroke="#9E9E9E" stroke-width="2.1125" stroke-linecap="round"/>
<path d="M25.8398 22.225L26.1517 20.3536C26.3781 18.9954 27.5532 18 28.9301 18H32.8815H36.8329C38.2098 18 39.3849 18.9954 39.6113 20.3536L39.9232 22.225" stroke="#9E9E9E" stroke-width="2.1125" stroke-linecap="round"/>
</svg>
