<svg width="31" height="31" viewBox="0 0 31 31" fill="none" xmlns="http://www.w3.org/2000/svg">
<path d="M10.332 7.10449L10.6993 4.90069C10.8601 3.93632 11.6944 3.22949 12.6721 3.22949L18.3253 3.22949C19.303 3.22949 20.1373 3.93632 20.2981 4.90069L20.6654 7.10449" stroke="#0D0D0D" stroke-width="1.5" stroke-linecap="round"/>
<path d="M10.3307 7.10449H4.58073C3.47616 7.10449 2.58073 7.99992 2.58073 9.10449V25.7712C2.58073 26.8757 3.47616 27.7712 4.58073 27.7712H26.4141C27.5186 27.7712 28.4141 26.8757 28.4141 25.7712V9.10449C28.4141 7.99992 27.5186 7.10449 26.4141 7.10449H20.6641" stroke="#0D0D0D" stroke-width="1.5" stroke-linecap="round"/>
<path d="M20.9358 17.5455C20.9358 14.5335 18.5008 12.0918 15.4972 12.0918C12.4935 12.0918 10.0586 14.5335 10.0586 17.5455C10.0586 20.5575 12.4935 22.9992 15.4972 22.9992C18.5008 22.9992 20.9358 20.5575 20.9358 17.5455Z" stroke="#0D0D0D" stroke-width="1.5"/>
</svg>
