<svg width="24" height="24" viewBox="0 0 24 24" fill="none" xmlns="http://www.w3.org/2000/svg">
<path d="M8 5.5L8.22147 4.1712C8.3822 3.20683 9.21658 2.5 10.1943 2.5L13.8057 2.5C14.7834 2.5 15.6178 3.20683 15.7785 4.1712L16 5.5" stroke="#E65100" stroke-width="1.5" stroke-linecap="round"/>
<path d="M8 5.5H4C2.89543 5.5 2 6.39543 2 7.5V19.5C2 20.6046 2.89543 21.5 4 21.5H20C21.1046 21.5 22 20.6046 22 19.5V7.5C22 6.39543 21.1046 5.5 20 5.5H16" stroke="#E65100" stroke-width="1.5" stroke-linecap="round"/>
<path d="M16.2101 13.5836C16.2101 11.2517 14.325 9.36133 11.9996 9.36133C9.67418 9.36133 7.78906 11.2517 7.78906 13.5836C7.78906 15.9154 9.67418 17.8058 11.9996 17.8058C14.325 17.8058 16.2101 15.9154 16.2101 13.5836Z" stroke="#E65100" stroke-width="1.5"/>
</svg>
