<svg width="20" height="20" viewBox="0 0 20 20" fill="none" xmlns="http://www.w3.org/2000/svg">
<path d="M18.4492 12.4805C18.8447 12.4805 19.1654 12.1599 19.1654 11.7643V7.10938C19.1654 5.52985 17.8803 4.2448 16.3008 4.2448H15.2136C14.9069 4.2448 14.6345 4.04975 14.5357 3.75939L14.319 3.12285C14.0225 2.25187 13.2052 1.66667 12.2851 1.66667H7.71C6.8078 1.66667 5.99573 2.23683 5.68933 3.08539L5.44143 3.77189C5.33927 4.05473 5.06861 4.2448 4.76786 4.2448H3.69661C2.11708 4.2448 0.832031 5.52985 0.832031 7.10938V15.3451C0.832031 16.9246 2.11708 18.2096 3.69661 18.2096H16.3008C17.8803 18.2096 19.1654 16.9246 19.1654 15.3451C19.1654 14.9495 18.8447 14.6289 18.4492 14.6289C18.0537 14.6289 17.7331 14.9495 17.7331 15.3451C17.7331 16.1348 17.0905 16.7773 16.3008 16.7773H3.69661C2.90685 16.7773 2.26432 16.1348 2.26432 15.3451V7.10938C2.26432 6.31961 2.90685 5.67709 3.69661 5.67709H4.76786C5.67006 5.67709 6.48213 5.10693 6.78854 4.25837L7.03643 3.57187C7.13859 3.28903 7.40926 3.09896 7.71 3.09896H12.2851C12.5918 3.09896 12.8642 3.29404 12.9631 3.58437L13.1798 4.22091C13.4762 5.09189 14.2936 5.67709 15.2136 5.67709H16.3008C17.0905 5.67709 17.7331 6.31961 17.7331 7.10938V11.7643C17.7331 12.1599 18.0537 12.4805 18.4492 12.4805Z" fill="#E65100"/>
<path fill-rule="evenodd" clip-rule="evenodd" d="M5.55859 10.8691C5.55859 8.40113 7.56649 6.39323 10.0345 6.39323C12.5025 6.39323 14.5104 8.40113 14.5104 10.8691C14.5104 13.3372 12.5025 15.3451 10.0345 15.3451C7.56649 15.3451 5.55859 13.3372 5.55859 10.8691ZM6.99089 10.8691C6.99089 12.5474 8.35625 13.9128 10.0345 13.9128C11.7128 13.9128 13.0781 12.5474 13.0781 10.8691C13.0781 9.19089 11.7128 7.82553 10.0345 7.82553C8.35625 7.82553 6.99089 9.19089 6.99089 10.8691Z" fill="#E65100"/>
</svg>
