<svg width="35" height="35" viewBox="0 0 35 35" fill="none" xmlns="http://www.w3.org/2000/svg">
<path d="M32.918 17.917C32.918 9.63272 26.2022 2.91699 17.918 2.91699C9.6337 2.91699 2.91797 9.63272 2.91797 17.917C2.91797 26.2013 9.6337 32.917 17.918 32.917C26.2022 32.917 32.918 26.2013 32.918 17.917Z" stroke="#121219" stroke-width="1.5"/>
<path d="M21.875 14.584C21.875 17.0002 19.9162 18.959 17.5 18.959C15.0838 18.959 13.125 17.0002 13.125 14.584C13.125 12.1677 15.0838 10.209 17.5 10.209C19.9162 10.209 21.875 12.1677 21.875 14.584Z" stroke="#121219" stroke-width="1.5"/>
<path d="M26.25 29.1673C26.25 25.9457 22.3325 23.334 17.5 23.334C12.6675 23.334 8.75 25.9457 8.75 29.1673" stroke="#121219" stroke-width="1.5" stroke-linecap="round"/>
</svg>
