<svg width="25" height="25" viewBox="0 0 25 25" fill="none" xmlns="http://www.w3.org/2000/svg">
<path d="M15.3631 12.4463C15.3631 14.0443 14.0845 15.3658 12.5025 15.3658C10.9204 15.3658 9.63281 14.0443 9.63281 12.4463C9.63281 10.8484 10.9204 9.63659 12.5025 9.63659C14.0845 9.63659 15.3631 10.8484 15.3631 12.4463Z" stroke="#121219" stroke-width="1.5"/>
<path d="M14.3578 3.19435L14.2564 2.96474C14.0202 2.42939 13.4901 2.08398 12.905 2.08398H12.0718C11.4866 2.08398 10.9566 2.42939 10.7203 2.96473L10.6189 3.19435C9.71267 5.24759 7.58529 6.4817 5.35302 6.24915L4.85746 6.19753C4.27988 6.13736 3.72063 6.42115 3.42816 6.92282L3.09715 7.4906C2.79898 8.00206 2.83495 8.64214 3.18856 9.11697L3.42001 9.42777C4.77934 11.2531 4.78529 13.7526 3.43466 15.5844L3.18184 15.9273C2.83201 16.4017 2.79773 17.0388 3.09463 17.548L3.42397 18.1129C3.71858 18.6182 4.2836 18.9021 4.86489 18.8369L5.325 18.7853C7.57037 18.5334 9.71926 19.7686 10.6316 21.8357L10.7203 22.0366C10.9566 22.5719 11.4866 22.9173 12.0718 22.9173H12.905C13.4901 22.9173 14.0202 22.5719 14.2564 22.0366L14.3451 21.8357C15.2575 19.7686 17.4064 18.5334 19.6517 18.7853L20.1208 18.8379C20.6975 18.9026 21.2587 18.6237 21.5553 18.1249L21.8996 17.5457C22.2015 17.038 22.1719 16.3994 21.8245 15.9218L21.5594 15.5572C20.2352 13.7368 20.2411 11.2688 21.5738 9.45467L21.8178 9.12253C22.169 8.64451 22.2002 8.00279 21.8971 7.49295L21.5511 6.91095C21.2566 6.41576 20.7012 6.1369 20.1282 6.1966L19.6237 6.24915C17.3914 6.4817 15.2641 5.24759 14.3578 3.19435Z" stroke="#121219" stroke-width="1.5" stroke-miterlimit="10"/>
</svg>
