<svg width="66" height="66" viewBox="0 0 66 66" fill="none" xmlns="http://www.w3.org/2000/svg">
<path d="M33.0013 62.1149C16.9409 62.1149 3.88672 49.0607 3.88672 33.0003C3.88672 16.9399 16.9409 3.88574 33.0013 3.88574C49.0617 3.88574 62.1159 16.9399 62.1159 33.0003C62.1159 49.0607 49.0617 62.1149 33.0013 62.1149ZM33.0013 7.94824C19.1888 7.94824 7.94922 19.1878 7.94922 33.0003C7.94922 46.8128 19.1888 58.0524 33.0013 58.0524C46.8138 58.0524 58.0534 46.8128 58.0534 33.0003C58.0534 19.1878 46.8138 7.94824 33.0013 7.94824Z" fill="#E65100"/>
<path d="M25.337 42.6954C24.8224 42.6954 24.3078 42.5059 23.9016 42.0996C23.1161 41.3142 23.1161 40.0142 23.9016 39.2288L39.2307 23.8996C40.0161 23.1142 41.3161 23.1142 42.1016 23.8996C42.887 24.685 42.887 25.985 42.1016 26.7704L26.7724 42.0996C26.3932 42.5059 25.8516 42.6954 25.337 42.6954Z" fill="#E65100"/>
<path d="M40.6661 42.6954C40.1516 42.6954 39.637 42.5059 39.2307 42.0996L23.9016 26.7704C23.1161 25.985 23.1161 24.685 23.9016 23.8996C24.687 23.1142 25.987 23.1142 26.7724 23.8996L42.1016 39.2288C42.887 40.0142 42.887 41.3142 42.1016 42.0996C41.6953 42.5059 41.1807 42.6954 40.6661 42.6954Z" fill="#E65100"/>
</svg>
