<svg width="24" height="24" viewBox="0 0 24 24" fill="none" xmlns="http://www.w3.org/2000/svg">
<path d="M17.8264 4.47C17.7463 4.47 17.6663 4.45 17.5963 4.41C15.676 3.42 14.0157 3 12.0253 3C10.0449 3 8.16459 3.47 6.45428 4.41C6.20424 4.54 5.90418 4.45 5.76416 4.21C5.70178 4.09305 5.68779 3.95629 5.72519 3.82913C5.7626 3.70197 5.84842 3.59457 5.96419 3.53C7.82453 2.52 9.8649 2 12.0253 2C14.1557 2 16.016 2.47 18.0564 3.52C18.3064 3.65 18.3965 3.95 18.2664 4.19C18.2269 4.27336 18.1646 4.34387 18.0868 4.3934C18.0089 4.44294 17.9186 4.46949 17.8264 4.47ZM3.50374 9.72C3.41155 9.72086 3.32092 9.69617 3.2419 9.64866C3.16289 9.60116 3.09858 9.5327 3.05611 9.45088C3.01363 9.36906 2.99466 9.27708 3.00129 9.18514C3.00792 9.09319 3.0399 9.00488 3.09367 8.93C4.08385 7.53 5.34408 6.43 6.84435 5.66C9.98493 4.04 14.0057 4.03 17.1562 5.65C18.6565 6.42 19.9167 7.51 20.9069 8.9C20.9453 8.95374 20.9726 9.01455 20.9874 9.07891C21.0021 9.14328 21.004 9.20993 20.9928 9.27501C20.9817 9.34009 20.9577 9.40232 20.9224 9.4581C20.887 9.51388 20.841 9.56211 20.7869 9.6C20.5569 9.76 20.2468 9.71 20.0868 9.48C19.2109 8.24038 18.0474 7.23156 16.6961 6.54C13.8256 5.07 10.155 5.07 7.29443 6.55C5.93419 7.25 4.79398 8.25 3.89381 9.51C3.8138 9.65 3.66377 9.72 3.50374 9.72ZM9.75488 21.79C9.6893 21.7908 9.62427 21.7779 9.56398 21.752C9.50369 21.7262 9.44947 21.688 9.40482 21.64C8.53466 20.77 8.06457 20.21 7.39445 19C6.70433 17.77 6.34426 16.27 6.34426 14.66C6.34426 11.69 8.88472 9.27 12.0053 9.27C15.1259 9.27 17.6663 11.69 17.6663 14.66C17.6663 14.94 17.4463 15.16 17.1662 15.16C16.8862 15.16 16.6661 14.94 16.6661 14.66C16.6661 12.24 14.5758 10.27 12.0053 10.27C9.43482 10.27 7.34444 12.24 7.34444 14.66C7.34444 16.1 7.6645 17.43 8.27461 18.51C8.91473 19.66 9.35481 20.15 10.125 20.93C10.315 21.13 10.315 21.44 10.125 21.64C10.0149 21.74 9.88491 21.79 9.75488 21.79ZM16.9362 19.94C15.746 19.94 14.6958 19.64 13.8356 19.05C12.3454 18.04 11.4552 16.4 11.4552 14.66C11.4552 14.38 11.6752 14.16 11.9553 14.16C12.2353 14.16 12.4554 14.38 12.4554 14.66C12.4554 16.07 13.1755 17.4 14.3957 18.22C15.1059 18.7 15.936 18.93 16.9362 18.93C17.1762 18.93 17.5763 18.9 17.9764 18.83C18.2464 18.78 18.5065 18.96 18.5565 19.24C18.6065 19.51 18.4265 19.77 18.1464 19.82C17.5763 19.93 17.0762 19.94 16.9362 19.94ZM14.9258 22C14.8858 22 14.8358 21.99 14.7958 21.98C13.2055 21.54 12.1653 20.95 11.0751 19.88C10.3843 19.198 9.83648 18.385 9.4638 17.4887C9.09112 16.5923 8.90105 15.6307 8.90473 14.66C8.90473 13.04 10.285 11.72 11.9853 11.72C13.6856 11.72 15.0659 13.04 15.0659 14.66C15.0659 15.73 15.996 16.6 17.1462 16.6C18.2964 16.6 19.2266 15.73 19.2266 14.66C19.2266 10.89 15.976 7.83 11.9753 7.83C9.13477 7.83 6.5343 9.41 5.36408 11.86C4.97401 12.67 4.77398 13.62 4.77398 14.66C4.77398 15.44 4.84399 16.67 5.4441 18.27C5.54412 18.53 5.41409 18.82 5.15404 18.91C4.894 19.01 4.60394 18.87 4.51393 18.62C4.03198 17.3553 3.78456 16.0134 3.78379 14.66C3.78379 13.46 4.01384 12.37 4.46392 11.42C5.79416 8.63 8.7447 6.82 11.9753 6.82C16.5261 6.82 20.2268 10.33 20.2268 14.65C20.2268 16.27 18.8465 17.59 17.1462 17.59C15.4459 17.59 14.0657 16.27 14.0657 14.65C14.0657 13.58 13.1355 12.71 11.9853 12.71C10.8351 12.71 9.90491 13.58 9.90491 14.65C9.90491 16.36 10.565 17.96 11.7753 19.16C12.7254 20.1 13.6356 20.62 15.0458 21.01C15.3159 21.08 15.4659 21.36 15.3959 21.62C15.3459 21.85 15.1359 22 14.9258 22Z" fill="#E65100"/>
</svg>
