<svg width="22" height="22" viewBox="0 0 22 22" fill="none" xmlns="http://www.w3.org/2000/svg">
<path d="M21 11C21 5.47715 16.5228 1 11 1C5.47715 1 1 5.47715 1 11C1 16.5228 5.47715 21 11 21C16.5228 21 21 16.5228 21 11Z" stroke="#121219" stroke-width="1.5"/>
<path d="M8.5 7.71806C8.63486 7.36247 8.83863 7.04373 9.09392 6.78019C9.56143 6.29757 10.2017 6 10.908 6C12.3395 6 13.5 7.22255 13.5 8.73065C13.5 10.0598 12.5986 11.1671 11.4047 11.4112C11.1342 11.4665 10.908 11.6852 10.908 11.9613V13" stroke="#121219" stroke-width="1.5" stroke-linecap="round"/>
<path d="M11 17.25C11.5523 17.25 12 16.8023 12 16.25C12 15.6977 11.5523 15.25 11 15.25C10.4477 15.25 10 15.6977 10 16.25C10 16.8023 10.4477 17.25 11 17.25Z" fill="#121219"/>
</svg>
