<svg width="61" height="61" viewBox="0 0 61 61" fill="none" xmlns="http://www.w3.org/2000/svg">
<path d="M48.7435 53.4283H12.2864C9.50918 53.4283 7.25781 51.177 7.25781 48.3998V11.9426C7.25781 9.16543 9.50918 6.91406 12.2864 6.91406H48.7435C51.5207 6.91406 53.7721 9.16543 53.7721 11.9426V48.3998C53.7721 51.177 51.5207 53.4283 48.7435 53.4283Z" stroke="#121219" stroke-width="2"/>
<path d="M7.88672 42.1306L21.2874 30.5238C23.1845 28.8805 26.0029 28.8879 27.8915 30.5409L51.8867 51.543" stroke="#121219" stroke-width="2" stroke-linecap="round" stroke-linejoin="round"/>
<path d="M45.6015 18.8574C45.6015 16.7745 43.9129 15.0859 41.83 15.0859C39.7471 15.0859 38.0586 16.7745 38.0586 18.8574C38.0586 20.9403 39.7471 22.6288 41.83 22.6288C43.9129 22.6288 45.6015 20.9403 45.6015 18.8574Z" stroke="#121219" stroke-width="2"/>
</svg>
