<svg width="12" height="16" viewBox="0 0 12 16" fill="none" xmlns="http://www.w3.org/2000/svg">
<path d="M6 7.625C5.43168 7.625 4.88663 7.42746 4.48477 7.07583C4.08291 6.72419 3.85714 6.24728 3.85714 5.75C3.85714 5.25272 4.08291 4.77581 4.48477 4.42417C4.88663 4.07254 5.43168 3.875 6 3.875C6.56832 3.875 7.11337 4.07254 7.51523 4.42417C7.91709 4.77581 8.14286 5.25272 8.14286 5.75C8.14286 5.99623 8.08743 6.24005 7.97974 6.46753C7.87205 6.69502 7.71421 6.90172 7.51523 7.07583C7.31625 7.24994 7.08002 7.38805 6.82004 7.48227C6.56005 7.5765 6.2814 7.625 6 7.625ZM6 0.5C4.4087 0.5 2.88258 1.05312 1.75736 2.03769C0.632141 3.02226 0 4.35761 0 5.75C0 9.6875 6 15.5 6 15.5C6 15.5 12 9.6875 12 5.75C12 4.35761 11.3679 3.02226 10.2426 2.03769C9.11742 1.05312 7.5913 0.5 6 0.5Z" fill="black"/>
</svg>
