<svg width="24" height="24" viewBox="0 0 24 24" fill="none" xmlns="http://www.w3.org/2000/svg">
<path d="M7.5 7L7.5 6.5C7.5 4.01472 9.51472 2 12 2V2C14.4853 2 16.5 4.01472 16.5 6.5L16.5 7" stroke="#E65100" stroke-width="1.5" stroke-linecap="round"/>
<path d="M21 19V9C21 7.89543 20.1046 7 19 7H5C3.89543 7 3 7.89543 3 9V19C3 20.1046 3.89543 21 5 21H19C20.1046 21 21 20.1046 21 19Z" stroke="#E65100" stroke-width="1.5"/>
<path d="M13.5 13C13.5 12.1716 12.8284 11.5 12 11.5C11.1716 11.5 10.5 12.1716 10.5 13C10.5 13.8284 11.1716 14.5 12 14.5C12.8284 14.5 13.5 13.8284 13.5 13Z" stroke="#E65100" stroke-width="1.5"/>
<path d="M12 15L12 17" stroke="#E65100" stroke-width="1.5" stroke-linecap="round" stroke-linejoin="round"/>
</svg>
