<svg width="52" height="51" viewBox="0 0 52 51" fill="none" xmlns="http://www.w3.org/2000/svg">
<path d="M15.5 15L15.5 12C15.5 7.58172 19.0817 4 23.5 4L28.5 4C32.9183 4 36.5 7.58172 36.5 12L36.5 15" stroke="#E65100" stroke-width="1.5" stroke-linecap="round"/>
<path d="M47.5 43V19C47.5 16.7909 45.7091 15 43.5 15H8.5C6.29086 15 4.5 16.7909 4.5 19V43C4.5 45.2091 6.29086 47 8.5 47H43.5C45.7091 47 47.5 45.2091 47.5 43Z" stroke="#E65100" stroke-width="1.5"/>
<path d="M30.15 30.2439C30.15 27.9513 28.2914 26.0928 25.9988 26.0928C23.7062 26.0928 21.8477 27.9513 21.8477 30.2439C21.8477 32.5366 23.7062 34.3951 25.9988 34.3951C28.2914 34.3951 30.15 32.5366 30.15 30.2439Z" stroke="#E65100" stroke-width="1.5"/>
<path d="M26 35.0004L26 40.9307" stroke="#E65100" stroke-width="1.5" stroke-linecap="round" stroke-linejoin="round"/>
</svg>
