<svg width="24" height="24" viewBox="0 0 24 24" fill="none" xmlns="http://www.w3.org/2000/svg">
<rect width="24" height="24" rx="6" fill="url(#paint0_linear_3021_65102)"/>
<path d="M17.4321 12.6663C17.3096 12.6663 17.1871 12.6247 17.0799 12.5331C13.9951 9.94304 10.007 9.94304 6.92213 12.5331C6.66953 12.7413 6.30975 12.6913 6.11839 12.4248C5.92702 12.15 5.97295 11.7586 6.2179 11.5504C9.73141 8.59389 14.2707 8.59389 17.7765 11.5504C18.0291 11.7586 18.075 12.15 17.876 12.4248C17.7765 12.5831 17.6081 12.6663 17.4321 12.6663Z" fill="white"/>
<path d="M19.4403 10C19.3212 10 19.2021 9.9602 19.0979 9.87259C14.781 6.30465 9.20615 6.30465 4.89664 9.87259C4.65102 10.0717 4.30119 10.0239 4.11512 9.76906C3.92904 9.50624 3.97369 9.13191 4.21187 8.9328C8.93819 5.0224 15.0489 5.0224 19.7827 8.9328C20.0283 9.13191 20.073 9.50624 19.8794 9.76906C19.7752 9.92038 19.6041 10 19.4403 10Z" fill="white"/>
<path d="M15.4625 15.3327C15.3461 15.3327 15.2296 15.2927 15.1277 15.2047C13.0314 13.4216 10.3164 13.4216 8.21279 15.2047C7.97259 15.4046 7.63048 15.3567 7.44851 15.1008C7.26654 14.8369 7.31022 14.4611 7.54314 14.2612C10.0471 12.1343 13.2862 12.1343 15.7901 14.2612C16.0303 14.4611 16.074 14.8369 15.8847 15.1008C15.7828 15.2527 15.6227 15.3327 15.4625 15.3327Z" fill="white"/>
<path d="M14.0745 18C13.947 18 13.8196 17.9587 13.7081 17.8678C12.6728 17.0331 11.3268 17.0331 10.2915 17.8678C10.0286 18.0744 9.65431 18.0248 9.45521 17.7603C9.2561 17.4876 9.30388 17.0992 9.55873 16.8926C11.0401 15.7025 12.9515 15.7025 14.4328 16.8926C14.6957 17.0992 14.7434 17.4876 14.5364 17.7603C14.4328 17.9091 14.2576 18 14.0745 18Z" fill="white"/>
<path d="M17.0859 6.55859L7.16113 16.4834" stroke="white" stroke-width="1.33333" stroke-linecap="round"/>
<defs>
<linearGradient id="paint0_linear_3021_65102" x1="12" y1="0" x2="12" y2="24" gradientUnits="userSpaceOnUse">
<stop stop-color="#E88B76"/>
<stop offset="1" stop-color="#CA5048"/>
</linearGradient>
</defs>
</svg>
