<svg width="24" height="24" viewBox="0 0 24 24" fill="none" xmlns="http://www.w3.org/2000/svg">
<path d="M16.6517 20.75C16.6417 20.75 16.6217 20.75 16.6117 20.75C16.2017 20.75 15.8617 20.41 15.8717 19.99C15.8717 19.58 16.2117 19.25 16.6217 19.25C16.6317 19.25 16.6517 19.25 16.6617 19.25C17.8017 19.25 18.8917 18.83 19.7317 18.05C21.2817 16.69 21.3917 14.75 20.9717 13.38C20.5517 12.01 19.3917 10.46 17.3617 10.2C17.0317 10.16 16.7717 9.91001 16.7117 9.58001C16.3117 7.19001 15.0217 5.54001 13.0817 4.94001C11.0617 4.32001 8.73168 4.93001 7.27168 6.46001C5.85168 7.95002 5.52168 10.02 6.34168 12.31C6.48168 12.7 6.28168 13.13 5.89168 13.27C5.50168 13.41 5.07168 13.21 4.93168 12.82C3.92168 10.01 4.38168 7.32001 6.19168 5.43001C8.03168 3.50001 10.9817 2.73001 13.5317 3.52001C15.8617 4.24001 17.5117 6.16001 18.1017 8.82001C20.1417 9.28001 21.7717 10.82 22.4217 12.95C23.1317 15.27 22.4817 17.65 20.7517 19.17C19.6117 20.19 18.1617 20.75 16.6517 20.75Z" fill="#FF0000"/>
<path d="M5.56813 20.75C5.54813 20.75 5.52813 20.75 5.51813 20.75C2.63812 20.55 1.32812 18.29 1.32812 16.28C1.32812 14.27 2.63812 12.02 5.51813 11.81C6.26813 11.8 6.98813 11.97 7.62813 12.29C7.99813 12.48 8.13812 12.93 7.95813 13.3C7.76813 13.67 7.31812 13.81 6.94812 13.63C6.52812 13.41 6.03813 13.32 5.58813 13.31C3.69813 13.45 2.83812 14.9 2.83812 16.28C2.83812 17.66 3.69812 19.11 5.63812 19.25C6.04812 19.28 6.35813 19.64 6.32812 20.05C6.28813 20.45 5.95813 20.75 5.56813 20.75Z" fill="#FF0000"/>
<path d="M15.8186 10.64C15.5486 10.64 15.2786 10.49 15.1486 10.22C14.9586 9.84997 15.1086 9.39997 15.4886 9.20997C16.0986 8.89997 16.7886 8.72997 17.4686 8.71997C17.8586 8.73997 18.2286 9.03997 18.2286 9.45997C18.2386 9.86997 17.9086 10.22 17.4886 10.22C17.0286 10.23 16.5686 10.34 16.1486 10.55C16.0486 10.62 15.9286 10.64 15.8186 10.64Z" fill="#FF0000"/>
<path d="M9.56 22.16C9.37 22.16 9.18 22.09 9.03 21.94C8.74 21.65 8.74 21.17 9.03 20.88L11.86 18.05C12.15 17.76 12.63 17.76 12.92 18.05C13.21 18.34 13.21 18.82 12.92 19.11L10.09 21.94C9.94 22.09 9.75 22.16 9.56 22.16Z" fill="#FF0000"/>
<path d="M12.39 22.16C12.2 22.16 12.01 22.09 11.86 21.94L9.03 19.11C8.74 18.82 8.74 18.34 9.03 18.05C9.32 17.76 9.8 17.76 10.09 18.05L12.92 20.88C13.21 21.17 13.21 21.65 12.92 21.94C12.77 22.09 12.58 22.16 12.39 22.16Z" fill="#FF0000"/>
</svg>
