<svg width="25" height="25" viewBox="0 0 25 25" fill="none" xmlns="http://www.w3.org/2000/svg">
<path d="M9.13672 20.5742C9.13672 21.0951 9.21322 21.9802 9.89185 22.4514C10.5705 22.9227 11.404 23.1784 12.2617 23.1784C13.1195 23.1784 13.953 22.9227 14.6316 22.4514C15.3102 21.9802 15.3867 21.0951 15.3867 20.5742" stroke="#121219" stroke-width="1.5" stroke-linecap="round" stroke-linejoin="round"/>
<path d="M5.23111 10.6777C5.23111 6.79448 8.37911 3.64648 12.2624 3.64648V2.08398C7.51616 2.08398 3.66861 5.93154 3.66861 10.6777V13.9146C3.66861 14.6872 3.41803 15.4389 2.95448 16.057L2.68045 16.4224C2.38944 16.8104 1.95857 17.4954 2.12175 18.2986C2.38177 19.5784 3.49536 20.0319 4.41608 20.1976C5.1753 20.3343 6.05688 20.3244 6.75896 20.3165C6.91149 20.3148 7.05556 20.3132 7.18805 20.3132H12.2624V18.7507H7.18805C7.01791 18.7507 6.84707 18.7523 6.67673 18.754C5.97952 18.7607 5.29071 18.7674 4.6929 18.6598C3.94557 18.5253 3.71327 18.2843 3.65297 17.9875C3.64498 17.9482 3.64441 17.8815 3.68834 17.7677C3.73398 17.6496 3.8154 17.5133 3.93045 17.3599L4.20447 16.9945C4.87087 16.106 5.23111 15.0253 5.23111 13.9146V10.6777Z" fill="#121219"/>
<path d="M19.2944 10.6777C19.2944 6.79448 16.1456 3.64648 12.2624 3.64648V2.08398C17.0086 2.08398 20.8569 5.93154 20.8569 10.6777V13.9146C20.8569 14.6872 21.1075 15.4389 21.5711 16.057L21.8451 16.4224C22.1361 16.8104 22.567 17.4954 22.4038 18.2986C22.1438 19.5784 21.0302 20.0319 20.1095 20.1976C19.3503 20.3343 18.4687 20.3244 17.7666 20.3165C17.6141 20.3148 17.47 20.3132 17.3375 20.3132H12.2624V18.7507H17.3375C17.5076 18.7507 17.6785 18.7523 17.8488 18.754C18.546 18.7607 19.2348 18.7674 19.8327 18.6598C20.58 18.5253 20.8123 18.2843 20.8726 17.9875C20.8806 17.9482 20.8811 17.8815 20.8372 17.7677C20.7916 17.6496 20.7102 17.5133 20.5951 17.3599L20.3211 16.9945C19.6547 16.106 19.2944 15.0253 19.2944 13.9146V10.6777Z" fill="#121219"/>
</svg>
