<svg width="124" height="123" viewBox="0 0 124 123" fill="none" xmlns="http://www.w3.org/2000/svg">
<path d="M62.0039 116.593C31.6127 116.593 6.91016 91.8908 6.91016 61.4995C6.91016 31.1083 31.6127 6.40576 62.0039 6.40576C92.3951 6.40576 117.098 31.1083 117.098 61.4995C117.098 91.8908 92.3951 116.593 62.0039 116.593ZM62.0039 14.0933C35.8664 14.0933 14.5977 35.362 14.5977 61.4995C14.5977 87.637 35.8664 108.906 62.0039 108.906C88.1414 108.906 109.41 87.637 109.41 61.4995C109.41 35.362 88.1414 14.0933 62.0039 14.0933Z" fill="#427FDA"/>
<path d="M54.7214 79.8472C53.6964 79.8472 52.7227 79.4372 52.0052 78.7197L37.5014 64.216C36.0152 62.7297 36.0152 60.2697 37.5014 58.7835C38.9877 57.2972 41.4477 57.2972 42.9339 58.7835L54.7214 70.571L81.0639 44.2285C82.5502 42.7422 85.0102 42.7422 86.4964 44.2285C87.9827 45.7147 87.9827 48.1747 86.4964 49.661L57.4377 78.7197C56.7202 79.4372 55.7464 79.8472 54.7214 79.8472Z" fill="#427FDA"/>
</svg>
