<svg width="66" height="65" viewBox="0 0 66 65" fill="none" xmlns="http://www.w3.org/2000/svg">
<path d="M33.0013 61.6146C16.9409 61.6146 3.88672 48.5604 3.88672 32.5C3.88672 16.4396 16.9409 3.38544 33.0013 3.38544C49.0617 3.38544 62.1159 16.4396 62.1159 32.5C62.1159 48.5604 49.0617 61.6146 33.0013 61.6146ZM33.0013 7.44794C19.1888 7.44794 7.94922 18.6875 7.94922 32.5C7.94922 46.3125 19.1888 57.5521 33.0013 57.5521C46.8138 57.5521 58.0534 46.3125 58.0534 32.5C58.0534 18.6875 46.8138 7.44794 33.0013 7.44794Z" fill="#427FDA"/>
<path d="M33 36.2812H26.125C25.5613 36.2812 25.0938 35.8138 25.0938 35.25C25.0938 34.6863 25.5613 34.2188 26.125 34.2188H33C33.5638 34.2188 34.0312 34.6863 34.0312 35.25C34.0312 35.8138 33.5638 36.2812 33 36.2812Z" fill="#9E9E9E"/>
<path d="M37.125 30.7812H26.125C25.5613 30.7812 25.0938 30.3138 25.0938 29.75C25.0938 29.1863 25.5613 28.7188 26.125 28.7188H37.125C37.6888 28.7188 38.1562 29.1863 38.1562 29.75C38.1562 30.3138 37.6888 30.7812 37.125 30.7812Z" fill="#9E9E9E"/>
<path d="M45.375 39.0312C44.8112 39.0312 44.3438 38.5637 44.3438 38V26.9862C44.3438 21.17 42.3637 19.9875 38.445 19.7812H30.25C29.6863 19.7812 29.2188 19.3138 29.2188 18.75C29.2188 18.1863 29.6863 17.7188 30.25 17.7188H38.5C44.1375 18.0213 46.4062 20.7025 46.4062 26.9862V38C46.4062 38.5637 45.9387 39.0312 45.375 39.0312Z" fill="#9E9E9E"/>
<path d="M37.125 47.2812H28.875C21.1475 47.2812 19.5938 43.7199 19.5938 37.9724V28.3887C19.5938 27.8249 20.0613 27.3574 20.625 27.3574C21.1888 27.3574 21.6562 27.8249 21.6562 28.3887V37.9724C21.6562 43.0874 22.66 45.2187 28.875 45.2187H37.125C37.6887 45.2187 38.1562 45.6862 38.1562 46.2499C38.1562 46.8137 37.6887 47.2812 37.125 47.2812Z" fill="#9E9E9E"/>
<path d="M37.125 47.2812C36.9875 47.2812 36.8638 47.2538 36.7263 47.1988C36.3413 47.0338 36.0938 46.6625 36.0938 46.25V42.125C36.0938 38.7975 37.9225 36.9688 41.25 36.9688H45.375C45.7875 36.9688 46.1725 37.2163 46.3238 37.6013C46.475 37.9863 46.3925 38.4263 46.1038 38.7288L37.8537 46.9788C37.6612 47.1713 37.3863 47.2812 37.125 47.2812ZM41.25 39.0312C39.0775 39.0312 38.1562 39.9525 38.1562 42.125V43.7613L42.8863 39.0312H41.25Z" fill="#9E9E9E"/>
<path d="M23.5 19L25.5 21" stroke="#427FDA" stroke-width="2" stroke-linecap="round"/>
<path d="M21.5 21L23.5 19" stroke="#427FDA" stroke-width="2" stroke-linecap="round"/>
<path d="M23.5586 19.2725L23.5 25" stroke="#427FDA" stroke-width="2" stroke-linecap="round"/>
</svg>
