<svg width="12" height="16" viewBox="0 0 12 16" fill="none" xmlns="http://www.w3.org/2000/svg">
<path d="M2.02563 0.829111L2.94794 0.571108C3.81281 0.329605 4.73683 0.72036 5.10712 1.48387L5.84428 3.00489C6.16486 3.66714 5.98657 4.4464 5.4037 4.93091L3.77938 6.27943C3.87967 7.08643 4.18996 7.88069 4.7094 8.6622C5.20267 9.41831 5.86431 10.0801 6.65515 10.6085L8.60604 10.0385C9.34491 9.82322 10.1506 10.0715 10.6032 10.6542L11.6601 12.0117C12.1873 12.6898 12.0921 13.6243 11.4381 14.1988L10.7378 14.8145C10.0401 15.4273 9.04319 15.65 8.12175 15.398C5.94456 14.804 3.94481 13.0408 2.11906 10.1082C0.290745 7.17119 -0.354696 4.67816 0.1836 2.63213C0.40989 1.77112 1.11019 1.08486 2.02563 0.829111Z" fill="black"/>
</svg>
