<svg width="66" height="65" viewBox="0 0 66 65" fill="none" xmlns="http://www.w3.org/2000/svg">
<path d="M33.0013 61.6147C16.9409 61.6147 3.88672 48.5605 3.88672 32.5001C3.88672 16.4397 16.9409 3.3855 33.0013 3.3855C49.0617 3.3855 62.1159 16.4397 62.1159 32.5001C62.1159 48.5605 49.0617 61.6147 33.0013 61.6147ZM33.0013 7.448C19.1888 7.448 7.94922 18.6876 7.94922 32.5001C7.94922 46.3126 19.1888 57.5522 33.0013 57.5522C46.8138 57.5522 58.0534 46.3126 58.0534 32.5001C58.0534 18.6876 46.8138 7.448 33.0013 7.448Z" fill="#E65100"/>
<rect x="18.4091" y="17.9091" width="28.1818" height="28.1818" rx="4.54545" stroke="#9E9E9E" stroke-width="1.81818"/>
<path d="M25.2148 27.2857L25.2148 30.7143" stroke="#9E9E9E" stroke-width="1.81818" stroke-linecap="round"/>
<path d="M39.7852 27.2857L39.7852 30.7143" stroke="#9E9E9E" stroke-width="1.81818" stroke-linecap="round"/>
<path d="M32.9297 29.0001L32.9297 31.5715" stroke="#9E9E9E" stroke-width="1.81818" stroke-linecap="round"/>
<path d="M31.2148 32.3767C30.7128 32.3767 30.3058 32.7837 30.3058 33.2858C30.3058 33.7879 30.7128 34.1949 31.2148 34.1949V32.3767ZM32.02 31.5715C32.02 32.0162 31.6595 32.3767 31.2148 32.3767V34.1949C32.6637 34.1949 33.8382 33.0204 33.8382 31.5715H32.02Z" fill="#9E9E9E"/>
<path d="M38.9297 39.2857C37.0389 37.992 31.8204 36.1809 26.0725 39.2857" stroke="#9E9E9E" stroke-width="1.81818" stroke-linecap="round"/>
</svg>
