<svg width="65" height="65" viewBox="0 0 65 65" fill="none" xmlns="http://www.w3.org/2000/svg">
<rect x="18.9091" y="18.9091" width="28.1818" height="28.1818" rx="4.54545" stroke="#9E9E9E" stroke-width="1.81818"/>
<path d="M25.7148 28.2861L25.7148 31.7147" stroke="#9E9E9E" stroke-width="1.81818" stroke-linecap="round"/>
<path d="M40.2852 28.2861L40.2852 31.7147" stroke="#9E9E9E" stroke-width="1.81818" stroke-linecap="round"/>
<path d="M33.4297 30L33.4297 32.5714" stroke="#9E9E9E" stroke-width="1.81818" stroke-linecap="round"/>
<path d="M31.7148 33.3766C31.2128 33.3766 30.8058 33.7836 30.8058 34.2857C30.8058 34.7878 31.2128 35.1948 31.7148 35.1948V33.3766ZM32.52 32.5714C32.52 33.0161 32.1595 33.3766 31.7148 33.3766V35.1948C33.1637 35.1948 34.3382 34.0203 34.3382 32.5714H32.52Z" fill="#9E9E9E"/>
<path d="M26.5742 38.5723C28.465 39.8659 33.6835 41.677 39.4314 38.5723" stroke="#9E9E9E" stroke-width="1.81818" stroke-linecap="round"/>
<path d="M32.5013 61.6145C16.4409 61.6145 3.38672 48.5604 3.38672 32.5C3.38672 16.4395 16.4409 3.38538 32.5013 3.38538C48.5617 3.38538 61.6159 16.4395 61.6159 32.5C61.6159 48.5604 48.5617 61.6145 32.5013 61.6145ZM32.5013 7.44788C18.6888 7.44788 7.44922 18.6875 7.44922 32.5C7.44922 46.3125 18.6888 57.552 32.5013 57.552C46.3138 57.552 57.5534 46.3125 57.5534 32.5C57.5534 18.6875 46.3138 7.44788 32.5013 7.44788Z" fill="#427FDA"/>
</svg>
