<svg width="66" height="65" viewBox="0 0 66 65" fill="none" xmlns="http://www.w3.org/2000/svg">
<path d="M33.0013 61.6149C16.9409 61.6149 3.88672 48.5607 3.88672 32.5003C3.88672 16.4399 16.9409 3.38574 33.0013 3.38574C49.0617 3.38574 62.1159 16.4399 62.1159 32.5003C62.1159 48.5607 49.0617 61.6149 33.0013 61.6149ZM33.0013 7.44824C19.1888 7.44824 7.94922 18.6878 7.94922 32.5003C7.94922 46.3128 19.1888 57.5524 33.0013 57.5524C46.8138 57.5524 58.0534 46.3128 58.0534 32.5003C58.0534 18.6878 46.8138 7.44824 33.0013 7.44824Z" fill="#E65100"/>
<path d="M28.875 38.875V30.625L26.125 33.375" stroke="#E65100" stroke-width="2" stroke-linecap="round" stroke-linejoin="round"/>
<path d="M28.875 30.625L31.625 33.375" stroke="#E65100" stroke-width="2" stroke-linecap="round" stroke-linejoin="round"/>
<path d="M46.75 29.25V36.125C46.75 43 44 45.75 37.125 45.75H28.875C22 45.75 19.25 43 19.25 36.125V27.875C19.25 21 22 18.25 28.875 18.25H35.75" stroke="#9E9E9E" stroke-width="2" stroke-linecap="round" stroke-linejoin="round"/>
<path d="M46.75 29.25H41.25C37.125 29.25 35.75 27.875 35.75 23.75V18.25L46.75 29.25Z" stroke="#9E9E9E" stroke-width="2" stroke-linecap="round" stroke-linejoin="round"/>
</svg>
