<svg width="66" height="66" viewBox="0 0 66 66" fill="none" xmlns="http://www.w3.org/2000/svg">
<path d="M33.0013 62.1149C16.9409 62.1149 3.88672 49.0607 3.88672 33.0003C3.88672 16.9399 16.9409 3.88574 33.0013 3.88574C49.0617 3.88574 62.1159 16.9399 62.1159 33.0003C62.1159 49.0607 49.0617 62.1149 33.0013 62.1149ZM33.0013 7.94824C19.1888 7.94824 7.94922 19.1878 7.94922 33.0003C7.94922 46.8128 19.1888 58.0524 33.0013 58.0524C46.8138 58.0524 58.0534 46.8128 58.0534 33.0003C58.0534 19.1878 46.8138 7.94824 33.0013 7.94824Z" fill="#E65100"/>
<path d="M44.6711 33.9043C44.4094 33.9043 44.1477 33.8225 43.9188 33.6426C37.3279 28.5564 28.8071 28.5564 22.2163 33.6426C21.6766 34.0515 20.9079 33.9534 20.499 33.43C20.0902 32.8903 20.1883 32.1217 20.7116 31.7128C28.2184 25.9069 37.9166 25.9069 45.407 31.7128C45.9467 32.1217 46.0448 32.8903 45.6196 33.43C45.407 33.7407 45.0472 33.9043 44.6711 33.9043Z" fill="#9E9E9E"/>
<path d="M49.427 28.2141C49.1653 28.2141 48.9036 28.1323 48.6746 27.9524C39.189 20.6256 26.9395 20.6256 17.4702 27.9524C16.9305 28.3613 16.1618 28.2632 15.7529 27.7398C15.3441 27.2001 15.4422 26.4314 15.9655 26.0226C26.3507 17.9925 39.7778 17.9925 50.1793 26.0226C50.719 26.4314 50.8171 27.2001 50.3919 27.7398C50.1629 28.0506 49.7868 28.2141 49.427 28.2141Z" fill="#9E9E9E"/>
<path d="M41.5992 39.8742C41.3375 39.8742 41.0758 39.7924 40.8468 39.6125C36.1367 35.9654 30.0365 35.9654 25.31 39.6125C24.7703 40.0213 24.0016 39.9233 23.5928 39.3999C23.1839 38.8602 23.282 38.0915 23.8054 37.6827C29.4314 33.3323 36.7091 33.3323 42.3351 37.6827C42.8748 38.0915 42.9729 38.8602 42.5477 39.3999C42.3187 39.7106 41.959 39.8742 41.5992 39.8742Z" fill="#9E9E9E"/>
<path d="M37.3245 45.8611C37.0629 45.8611 36.8012 45.7793 36.5722 45.5994C34.4461 43.9476 31.6822 43.9476 29.5561 45.5994C29.0164 46.0083 28.2477 45.9102 27.8389 45.3868C27.43 44.8471 27.5281 44.0785 28.0515 43.6696C31.0934 41.3146 35.0185 41.3146 38.0605 43.6696C38.6002 44.0785 38.6983 44.8471 38.2731 45.3868C38.0605 45.6812 37.7007 45.8611 37.3245 45.8611Z" fill="#9E9E9E"/>
<path d="M44.5 20.5L22.5 42.5" stroke="#E65100" stroke-width="3" stroke-linecap="round"/>
</svg>
