<svg width="66" height="65" viewBox="0 0 66 65" fill="none" xmlns="http://www.w3.org/2000/svg">
<path d="M33.0013 61.6147C16.9409 61.6147 3.88672 48.5605 3.88672 32.5001C3.88672 16.4397 16.9409 3.3855 33.0013 3.3855C49.0617 3.3855 62.1159 16.4397 62.1159 32.5001C62.1159 48.5605 49.0617 61.6147 33.0013 61.6147ZM33.0013 7.448C19.1888 7.448 7.94922 18.6876 7.94922 32.5001C7.94922 46.3126 19.1888 57.5522 33.0013 57.5522C46.8138 57.5522 58.0534 46.3126 58.0534 32.5001C58.0534 18.6876 46.8138 7.448 33.0013 7.448Z" fill="#E65100"/>
<path d="M33 33.5312C28.6412 33.5312 25.0938 29.9838 25.0938 25.625C25.0938 21.2662 28.6412 17.7188 33 17.7188C37.3588 17.7188 40.9062 21.2662 40.9062 25.625C40.9062 29.9838 37.3588 33.5312 33 33.5312ZM33 19.7812C29.7825 19.7812 27.1562 22.4075 27.1562 25.625C27.1562 28.8425 29.7825 31.4688 33 31.4688C36.2175 31.4688 38.8438 28.8425 38.8438 25.625C38.8438 22.4075 36.2175 19.7812 33 19.7812Z" fill="#9E9E9E"/>
<path d="M38.2539 47.2813C37.7314 47.2813 37.2364 47.0887 36.8789 46.7312C36.4526 46.305 36.2601 45.6863 36.3564 45.04L36.6176 43.1838C36.6864 42.7025 36.9751 42.1388 37.3189 41.7813L42.1863 36.9138C44.1388 34.9613 45.8576 36.075 46.6964 36.9138C47.4114 37.6288 47.7826 38.3987 47.7826 39.1687C47.7826 39.9525 47.4251 40.6812 46.6964 41.41L41.8288 46.2775C41.4851 46.6213 40.9076 46.9101 40.4264 46.9788L38.5701 47.24C38.4601 47.2675 38.3639 47.2813 38.2539 47.2813ZM44.4276 37.89C44.1801 37.89 43.9601 38.055 43.6438 38.3713L38.7764 43.2388C38.7351 43.28 38.6663 43.4175 38.6663 43.4725L38.4189 45.1912L40.1376 44.9437C40.1926 44.93 40.3301 44.8613 40.3713 44.82L45.2389 39.9525C45.4589 39.7325 45.7201 39.4162 45.7201 39.1687C45.7201 38.9625 45.5551 38.6738 45.2389 38.3713C44.9089 38.0413 44.6613 37.89 44.4276 37.89Z" fill="#9E9E9E"/>
<path d="M45.2639 42.4275C45.1676 42.4275 45.0713 42.4138 44.9888 42.3863C43.1738 41.8775 41.7301 40.4338 41.2213 38.6188C41.0701 38.0688 41.3864 37.505 41.9364 37.3538C42.4864 37.2025 43.0501 37.5187 43.2014 38.0687C43.5176 39.1962 44.4114 40.09 45.5389 40.4063C46.0889 40.5575 46.4051 41.135 46.2539 41.6712C46.1301 42.125 45.7176 42.4275 45.2639 42.4275Z" fill="#9E9E9E"/>
<path d="M21.1875 47.2812C20.6238 47.2812 20.1562 46.8138 20.1562 46.25C20.1562 40.3787 25.9175 35.5938 32.9988 35.5938C34.4975 35.5938 35.9825 35.8138 37.3713 36.2263C37.9213 36.3913 38.2238 36.9688 38.0588 37.505C37.8938 38.055 37.3163 38.3575 36.78 38.1925C35.57 37.835 34.305 37.6425 32.9988 37.6425C27.0588 37.6425 22.2188 41.4925 22.2188 46.2362C22.2188 46.8137 21.7513 47.2812 21.1875 47.2812Z" fill="#9E9E9E"/>
</svg>
