<svg width="66" height="65" viewBox="0 0 66 65" fill="none" xmlns="http://www.w3.org/2000/svg">
<path d="M33.0013 61.6149C16.9409 61.6149 3.88672 48.5607 3.88672 32.5003C3.88672 16.4399 16.9409 3.38574 33.0013 3.38574C49.0617 3.38574 62.1159 16.4399 62.1159 32.5003C62.1159 48.5607 49.0617 61.6149 33.0013 61.6149ZM33.0013 7.44824C19.1888 7.44824 7.94922 18.6878 7.94922 32.5003C7.94922 46.3128 19.1888 57.5524 33.0013 57.5524C46.8138 57.5524 58.0534 46.3128 58.0534 32.5003C58.0534 18.6878 46.8138 7.44824 33.0013 7.44824Z" fill="#E65100"/>
<path d="M35.7502 39.2511C35.4889 39.2511 35.2277 39.1549 35.0214 38.9486L29.5764 33.5036C29.1777 33.1049 29.1777 32.4449 29.5764 32.0461C29.9752 31.6474 30.6352 31.6474 31.0339 32.0461L36.4789 37.4911C36.8777 37.8899 36.8777 38.5499 36.4789 38.9486C36.2727 39.1411 36.0114 39.2511 35.7502 39.2511Z" fill="#E65100"/>
<path d="M30.2505 39.3058C29.9892 39.3058 29.728 39.2096 29.5217 39.0033C29.123 38.6046 29.123 37.9446 29.5217 37.5458L34.9667 32.1008C35.3655 31.7021 36.0255 31.7021 36.4242 32.1008C36.823 32.4996 36.823 33.1596 36.4242 33.5583L30.9792 39.0033C30.773 39.2096 30.5117 39.3058 30.2505 39.3058Z" fill="#E65100"/>
<path d="M35.75 25.2812H30.25C28.93 25.2812 26.4688 25.2812 26.4688 21.5C26.4688 17.7188 28.93 17.7188 30.25 17.7188H35.75C37.07 17.7188 39.5312 17.7188 39.5312 21.5C39.5312 22.82 39.5312 25.2812 35.75 25.2812ZM30.25 19.7812C28.8888 19.7812 28.5312 19.7812 28.5312 21.5C28.5312 23.2188 28.8888 23.2188 30.25 23.2188H35.75C37.4688 23.2188 37.4688 22.8612 37.4688 21.5C37.4688 19.7812 37.1112 19.7812 35.75 19.7812H30.25Z" fill="#9E9E9E"/>
<path d="M37.125 47.2823H28.875C21.1475 47.2823 19.5938 43.7348 19.5938 38.0011V29.7511C19.5938 23.4811 21.8625 20.7998 27.445 20.5111C28.0225 20.4836 28.5037 20.9098 28.5312 21.4873C28.5588 22.0648 28.1187 22.5323 27.555 22.5598C23.65 22.7798 21.6562 23.9486 21.6562 29.7511V38.0011C21.6562 43.0886 22.66 45.2198 28.875 45.2198H37.125C43.34 45.2198 44.3438 43.0886 44.3438 38.0011V29.7511C44.3438 23.9486 42.35 22.7798 38.445 22.5598C37.8813 22.5323 37.4412 22.0373 37.4688 21.4736C37.4963 20.9098 37.9913 20.4698 38.555 20.4973C44.1375 20.7998 46.4062 23.4811 46.4062 29.7373V37.9873C46.4062 43.7348 44.8525 47.2823 37.125 47.2823Z" fill="#9E9E9E"/>
</svg>
