<svg width="66" height="65" viewBox="0 0 66 65" fill="none" xmlns="http://www.w3.org/2000/svg">
<path d="M33.0013 61.6149C16.9409 61.6149 3.88672 48.5607 3.88672 32.5003C3.88672 16.4399 16.9409 3.38574 33.0013 3.38574C49.0617 3.38574 62.1159 16.4399 62.1159 32.5003C62.1159 48.5607 49.0617 61.6149 33.0013 61.6149ZM33.0013 7.44824C19.1888 7.44824 7.94922 18.6878 7.94922 32.5003C7.94922 46.3128 19.1888 57.5524 33.0013 57.5524C46.8138 57.5524 58.0534 46.3128 58.0534 32.5003C58.0534 18.6878 46.8138 7.44824 33.0013 7.44824Z" fill="#E65100"/>
<path d="M34.0901 47.5495H33.9059C27.6159 47.5495 24.5842 45.0703 24.0601 39.517C24.0034 38.9362 24.4284 38.412 25.0234 38.3553C25.5901 38.2987 26.1284 38.7378 26.1851 39.3187C26.5959 43.767 28.6926 45.4245 33.9201 45.4245H34.1042C39.8701 45.4245 41.9101 43.3845 41.9101 37.6187V28.382C41.9101 22.6162 39.8701 20.5762 34.1042 20.5762H33.9201C28.6642 20.5762 26.5676 22.262 26.1851 26.7953C26.1142 27.3762 25.6184 27.8153 25.0234 27.7587C24.4284 27.7162 24.0034 27.192 24.0459 26.6112C24.5276 20.9728 27.5734 18.4512 33.9059 18.4512H34.0901C41.0459 18.4512 44.0209 21.4262 44.0209 28.382V37.6187C44.0209 44.5745 41.0459 47.5495 34.0901 47.5495Z" fill="#9E9E9E"/>
<path d="M33.7506 34.0625H17.6289C17.0481 34.0625 16.5664 33.5808 16.5664 33C16.5664 32.4192 17.0481 31.9375 17.6289 31.9375H33.7506C34.3314 31.9375 34.8131 32.4192 34.8131 33C34.8131 33.5808 34.3314 34.0625 33.7506 34.0625Z" fill="#9E9E9E"/>
<path d="M20.7892 38.8084C20.52 38.8084 20.2508 38.7093 20.0383 38.4968L15.2925 33.7509C14.8817 33.3401 14.8817 32.6601 15.2925 32.2493L20.0383 27.5034C20.4492 27.0926 21.1292 27.0926 21.54 27.5034C21.9508 27.9143 21.9508 28.5943 21.54 29.0051L17.545 33.0001L21.54 36.9951C21.9508 37.4059 21.9508 38.0859 21.54 38.4968C21.3417 38.7093 21.0583 38.8084 20.7892 38.8084Z" fill="#9E9E9E"/>
</svg>
