<svg width="66" height="65" viewBox="0 0 66 65" fill="none" xmlns="http://www.w3.org/2000/svg">
<path d="M33.0013 61.6149C16.9409 61.6149 3.88672 48.5607 3.88672 32.5003C3.88672 16.4399 16.9409 3.38574 33.0013 3.38574C49.0617 3.38574 62.1159 16.4399 62.1159 32.5003C62.1159 48.5607 49.0617 61.6149 33.0013 61.6149ZM33.0013 7.44824C19.1888 7.44824 7.94922 18.6878 7.94922 32.5003C7.94922 46.3128 19.1888 57.5524 33.0013 57.5524C46.8138 57.5524 58.0534 46.3128 58.0534 32.5003C58.0534 18.6878 46.8138 7.44824 33.0013 7.44824Z" fill="#E65100"/>
<path d="M38.1658 47.2296H26.8325C20.2875 47.2296 19.0692 44.1838 18.7575 41.223L17.695 29.8755C17.5392 28.388 17.4967 26.1921 18.97 24.5488C20.245 23.1321 22.3558 22.4521 25.4158 22.4521H39.5825C42.6567 22.4521 44.7675 23.1463 46.0283 24.5488C47.5017 26.1921 47.4592 28.388 47.3033 29.8896L46.2408 41.2088C45.9292 44.1838 44.7108 47.2296 38.1658 47.2296ZM25.4158 24.563C23.0217 24.563 21.3783 25.0305 20.5425 25.9655C19.8483 26.7305 19.6217 27.9063 19.8058 29.663L20.8683 41.0105C21.1092 43.2488 21.7183 45.1046 26.8325 45.1046H38.1658C43.2659 45.1046 43.8892 43.2488 44.13 40.9963L45.1925 29.6771C45.3767 27.9063 45.15 26.7305 44.4558 25.9655C43.62 25.0305 41.9767 24.563 39.5825 24.563H25.4158Z" fill="#9E9E9E"/>
<path d="M38.1654 24.5622C37.5845 24.5622 37.1029 24.0805 37.1029 23.4997V22.3663C37.1029 19.8447 37.1029 18.8955 33.632 18.8955H31.3654C27.8945 18.8955 27.8945 19.8447 27.8945 22.3663V23.4997C27.8945 24.0805 27.4129 24.5622 26.832 24.5622C26.2512 24.5622 25.7695 24.0805 25.7695 23.4997V22.3663C25.7695 19.873 25.7695 16.7705 31.3654 16.7705H33.632C39.2279 16.7705 39.2279 19.873 39.2279 22.3663V23.4997C39.2279 24.0805 38.7462 24.5622 38.1654 24.5622Z" fill="#9E9E9E"/>
<path d="M32.5013 38.7292C28.6055 38.7292 28.6055 36.3208 28.6055 34.8758V33.4167C28.6055 31.4192 29.0871 30.9375 31.0846 30.9375H33.918C35.9155 30.9375 36.3971 31.4192 36.3971 33.4167V34.8333C36.3971 36.3067 36.3971 38.7292 32.5013 38.7292ZM30.7305 33.0625C30.7305 33.1758 30.7305 33.3033 30.7305 33.4167V34.8758C30.7305 36.335 30.7305 36.6042 32.5013 36.6042C34.2721 36.6042 34.2721 36.3775 34.2721 34.8617V33.4167C34.2721 33.3033 34.2721 33.1758 34.2721 33.0625C34.1588 33.0625 34.0313 33.0625 33.918 33.0625H31.0846C30.9713 33.0625 30.8438 33.0625 30.7305 33.0625Z" fill="#9E9E9E"/>
<path d="M35.3336 35.9247C34.8095 35.9247 34.342 35.528 34.2853 34.9897C34.2145 34.4088 34.6253 33.8705 35.2061 33.7997C38.9461 33.3322 42.5303 31.9155 45.5478 29.7197C46.0153 29.3655 46.6811 29.4788 47.0353 29.9605C47.3753 30.428 47.2761 31.0938 46.7945 31.448C43.4795 33.8563 39.5695 35.4005 35.4611 35.9247C35.4186 35.9247 35.3761 35.9247 35.3336 35.9247Z" fill="#9E9E9E"/>
<path d="M29.6648 35.9386C29.6223 35.9386 29.5798 35.9386 29.5373 35.9386C25.6556 35.4994 21.8731 34.0828 18.6006 31.8444C18.1189 31.5186 17.9914 30.8528 18.3173 30.3711C18.6431 29.8894 19.3089 29.7619 19.7906 30.0878C22.7798 32.1278 26.2223 33.4169 29.7639 33.8278C30.3448 33.8986 30.7698 34.4228 30.6989 35.0036C30.6564 35.5419 30.2031 35.9386 29.6648 35.9386Z" fill="#9E9E9E"/>
</svg>
