<svg width="66" height="65" viewBox="0 0 66 65" fill="none" xmlns="http://www.w3.org/2000/svg">
<path d="M33.0013 61.6149C16.9409 61.6149 3.88672 48.5607 3.88672 32.5003C3.88672 16.4399 16.9409 3.38574 33.0013 3.38574C49.0617 3.38574 62.1159 16.4399 62.1159 32.5003C62.1159 48.5607 49.0617 61.6149 33.0013 61.6149ZM33.0013 7.44824C19.1888 7.44824 7.94922 18.6878 7.94922 32.5003C7.94922 46.3128 19.1888 57.5524 33.0013 57.5524C46.8138 57.5524 58.0534 46.3128 58.0534 32.5003C58.0534 18.6878 46.8138 7.44824 33.0013 7.44824Z" fill="#E65100"/>
<path d="M32.4957 48C30.4445 48 28.3794 47.219 26.7717 45.6709C22.6831 41.7099 18.1648 35.3919 19.8696 27.8745C21.408 21.0544 27.3261 18 32.4957 18C32.4957 18 32.4957 18 32.5096 18C37.6792 18 43.5973 21.0544 45.1357 27.8884C46.8266 35.4059 42.3084 41.7099 38.2198 45.6709C36.612 47.219 34.547 48 32.4957 48ZM32.4957 20.0921C28.4626 20.0921 23.279 22.2538 21.9069 28.3347C20.4101 34.9038 24.5125 40.5662 28.2269 44.1506C30.6247 46.4798 34.3806 46.4798 36.7784 44.1506C40.4789 40.5662 44.5814 34.9038 43.1122 28.3347C41.7263 22.2538 36.5289 20.0921 32.4957 20.0921Z" fill="#9E9E9E"/>
<path d="M35.4038 35C35.1251 35 34.8465 34.9102 34.6265 34.7178L28.819 29.6386C28.3937 29.2666 28.3937 28.6509 28.819 28.279C29.2443 27.907 29.9482 27.907 30.3735 28.279L36.181 33.3582C36.6063 33.7302 36.6063 34.3459 36.181 34.7178C35.961 34.8974 35.6824 35 35.4038 35Z" fill="#E65100"/>
<path d="M29.5962 35C29.3176 35 29.039 34.9102 28.819 34.7178C28.3937 34.3459 28.3937 33.7302 28.819 33.3582L34.6265 28.279C35.0518 27.907 35.7557 27.907 36.181 28.279C36.6063 28.6509 36.6063 29.2666 36.181 29.6386L30.3735 34.7178C30.1535 34.9102 29.8749 35 29.5962 35Z" fill="#E65100"/>
</svg>
