<svg width="66" height="65" viewBox="0 0 66 65" fill="none" xmlns="http://www.w3.org/2000/svg">
<path d="M33.0013 61.6149C16.9409 61.6149 3.88672 48.5607 3.88672 32.5003C3.88672 16.4399 16.9409 3.38574 33.0013 3.38574C49.0617 3.38574 62.1159 16.4399 62.1159 32.5003C62.1159 48.5607 49.0617 61.6149 33.0013 61.6149ZM33.0013 7.44824C19.1888 7.44824 7.94922 18.6878 7.94922 32.5003C7.94922 46.3128 19.1888 57.5524 33.0013 57.5524C46.8138 57.5524 58.0534 46.3128 58.0534 32.5003C58.0534 18.6878 46.8138 7.44824 33.0013 7.44824Z" fill="#E65100"/>
<path d="M24.5403 29.182C24.4803 29.284 24.4173 29.359 24.3513 29.407C24.2853 29.455 24.2013 29.479 24.0993 29.479C23.9913 29.479 23.8683 29.431 23.7303 29.335C23.5923 29.233 23.4183 29.122 23.2083 29.002C23.0043 28.876 22.7583 28.765 22.4703 28.669C22.1823 28.567 21.8373 28.516 21.4353 28.516C21.0573 28.516 20.7243 28.567 20.4363 28.669C20.1543 28.765 19.9173 28.9 19.7253 29.074C19.5333 29.242 19.3863 29.443 19.2843 29.677C19.1883 29.905 19.1403 30.154 19.1403 30.424C19.1403 30.772 19.2273 31.06 19.4013 31.288C19.5813 31.516 19.8153 31.711 20.1033 31.873C20.3913 32.035 20.7183 32.176 21.0843 32.296C21.4503 32.416 21.8253 32.542 22.2093 32.674C22.5933 32.8 22.9683 32.947 23.3343 33.115C23.7003 33.283 24.0273 33.496 24.3153 33.754C24.6033 34.006 24.8343 34.318 25.0083 34.69C25.1883 35.056 25.2783 35.506 25.2783 36.04C25.2783 36.61 25.1793 37.144 24.9813 37.642C24.7893 38.14 24.5073 38.575 24.1353 38.947C23.7633 39.319 23.3043 39.613 22.7583 39.829C22.2183 40.039 21.6033 40.144 20.9133 40.144C20.4993 40.144 20.0973 40.102 19.7073 40.018C19.3173 39.94 18.9483 39.829 18.6003 39.685C18.2523 39.535 17.9253 39.358 17.6193 39.154C17.3193 38.944 17.0493 38.71 16.8093 38.452L17.3583 37.534C17.4123 37.462 17.4753 37.402 17.5473 37.354C17.6253 37.306 17.7123 37.282 17.8083 37.282C17.9343 37.282 18.0783 37.348 18.2403 37.48C18.4083 37.612 18.6123 37.759 18.8523 37.921C19.0983 38.077 19.3893 38.221 19.7253 38.353C20.0673 38.485 20.4813 38.551 20.9673 38.551C21.3633 38.551 21.7173 38.5 22.0293 38.398C22.3413 38.29 22.6023 38.14 22.8123 37.948C23.0283 37.75 23.1933 37.513 23.3073 37.237C23.4213 36.961 23.4783 36.655 23.4783 36.319C23.4783 35.941 23.3913 35.632 23.2173 35.392C23.0433 35.152 22.8123 34.951 22.5243 34.789C22.2363 34.627 21.9093 34.489 21.5433 34.375C21.1773 34.261 20.8023 34.144 20.4183 34.024C20.0343 33.898 19.6593 33.754 19.2933 33.592C18.9273 33.43 18.6003 33.22 18.3123 32.962C18.0243 32.698 17.7933 32.371 17.6193 31.981C17.4453 31.585 17.3583 31.099 17.3583 30.523C17.3583 30.061 17.4483 29.614 17.6283 29.182C17.8083 28.75 18.0693 28.369 18.4113 28.039C18.7593 27.703 19.1853 27.436 19.6893 27.238C20.1933 27.034 20.7693 26.932 21.4173 26.932C22.1433 26.932 22.8093 27.049 23.4153 27.283C24.0273 27.511 24.5583 27.841 25.0083 28.273L24.5403 29.182ZM28.9081 26.716V34.483H29.3221C29.4481 34.483 29.5531 34.465 29.6371 34.429C29.7211 34.393 29.8081 34.321 29.8981 34.213L32.6341 31.198C32.7181 31.084 32.8111 31 32.9131 30.946C33.0151 30.886 33.1441 30.856 33.3001 30.856H34.9021L31.6711 34.393C31.4971 34.615 31.3111 34.786 31.1131 34.906C31.2271 34.984 31.3261 35.074 31.4101 35.176C31.5001 35.278 31.5871 35.389 31.6711 35.509L35.1091 40H33.5341C33.3901 40 33.2641 39.976 33.1561 39.928C33.0541 39.88 32.9611 39.793 32.8771 39.667L30.0511 35.995C29.9611 35.857 29.8711 35.77 29.7811 35.734C29.6911 35.692 29.5561 35.671 29.3761 35.671H28.9081V40H27.1531V26.716H28.9081ZM38.2798 30.856V40H36.5248V30.856H38.2798ZM38.6128 28.03C38.6128 28.192 38.5798 28.348 38.5138 28.498C38.4478 28.642 38.3578 28.771 38.2438 28.885C38.1358 28.993 38.0068 29.08 37.8568 29.146C37.7068 29.206 37.5508 29.236 37.3888 29.236C37.2268 29.236 37.0738 29.206 36.9298 29.146C36.7858 29.08 36.6568 28.993 36.5428 28.885C36.4348 28.771 36.3478 28.642 36.2818 28.498C36.2218 28.348 36.1918 28.192 36.1918 28.03C36.1918 27.862 36.2218 27.706 36.2818 27.562C36.3478 27.412 36.4348 27.283 36.5428 27.175C36.6568 27.061 36.7858 26.974 36.9298 26.914C37.0738 26.848 37.2268 26.815 37.3888 26.815C37.5508 26.815 37.7068 26.848 37.8568 26.914C38.0068 26.974 38.1358 27.061 38.2438 27.175C38.3578 27.283 38.4478 27.412 38.5138 27.562C38.5798 27.706 38.6128 27.862 38.6128 28.03ZM42.6027 37.75C42.8907 38.128 43.1997 38.392 43.5297 38.542C43.8657 38.692 44.2407 38.767 44.6547 38.767C45.4587 38.767 46.0797 38.479 46.5177 37.903C46.9617 37.321 47.1837 36.475 47.1837 35.365C47.1837 34.783 47.1327 34.288 47.0307 33.88C46.9347 33.466 46.7907 33.13 46.5987 32.872C46.4127 32.608 46.1817 32.416 45.9057 32.296C45.6297 32.17 45.3177 32.107 44.9697 32.107C44.4597 32.107 44.0157 32.221 43.6377 32.449C43.2657 32.677 42.9207 33.001 42.6027 33.421V37.75ZM42.5127 32.224C42.7047 31.996 42.9087 31.789 43.1247 31.603C43.3467 31.411 43.5837 31.249 43.8357 31.117C44.0877 30.979 44.3547 30.874 44.6367 30.802C44.9247 30.724 45.2307 30.685 45.5547 30.685C46.0767 30.685 46.5477 30.787 46.9677 30.991C47.3937 31.195 47.7567 31.495 48.0567 31.891C48.3567 32.287 48.5877 32.776 48.7497 33.358C48.9177 33.94 49.0017 34.609 49.0017 35.365C49.0017 36.043 48.9087 36.673 48.7227 37.255C48.5427 37.831 48.2817 38.332 47.9397 38.758C47.6037 39.184 47.1897 39.52 46.6977 39.766C46.2117 40.006 45.6627 40.126 45.0507 40.126C44.5047 40.126 44.0367 40.036 43.6467 39.856C43.2567 39.676 42.9087 39.424 42.6027 39.1V43.069H40.8477V30.856H41.9007C42.1467 30.856 42.2997 30.973 42.3597 31.207L42.5127 32.224Z" fill="#9E9E9E"/>
</svg>
