<svg width="66" height="66" viewBox="0 0 66 66" fill="none" xmlns="http://www.w3.org/2000/svg">
<path d="M33.0013 62.1144C16.9409 62.1144 3.88672 49.0603 3.88672 32.9998C3.88672 16.9394 16.9409 3.88525 33.0013 3.88525C49.0617 3.88525 62.1159 16.9394 62.1159 32.9998C62.1159 49.0603 49.0617 62.1144 33.0013 62.1144ZM33.0013 7.94775C19.1888 7.94775 7.94922 19.1873 7.94922 32.9998C7.94922 46.8123 19.1888 58.0519 33.0013 58.0519C46.8138 58.0519 58.0534 46.8123 58.0534 32.9998C58.0534 19.1873 46.8138 7.94775 33.0013 7.94775Z" fill="#E65100"/>
<path d="M28.875 31.125L28.875 39.375L31.625 36.625" stroke="#E65100" stroke-width="2" stroke-linecap="round" stroke-linejoin="round"/>
<path d="M28.875 39.375L26.125 36.625" stroke="#E65100" stroke-width="2" stroke-linecap="round" stroke-linejoin="round"/>
<path d="M46.75 29.75V36.625C46.75 43.5 44 46.25 37.125 46.25H28.875C22 46.25 19.25 43.5 19.25 36.625V28.375C19.25 21.5 22 18.75 28.875 18.75H35.75" stroke="#9E9E9E" stroke-width="2" stroke-linecap="round" stroke-linejoin="round"/>
<path d="M46.75 29.75H41.25C37.125 29.75 35.75 28.375 35.75 24.25V18.75L46.75 29.75Z" stroke="#9E9E9E" stroke-width="2" stroke-linecap="round" stroke-linejoin="round"/>
</svg>
