<svg width="25" height="24" viewBox="0 0 25 24" fill="none" xmlns="http://www.w3.org/2000/svg">
<path fill-rule="evenodd" clip-rule="evenodd" d="M14.9983 13.27L20.7283 19L19.2383 20.49L13.5083 14.76C12.4383 15.53 11.1483 16 9.73828 16C6.14828 16 3.23828 13.09 3.23828 9.5C3.23828 5.91 6.14828 3 9.73828 3C13.3283 3 16.2383 5.91 16.2383 9.5C16.2383 10.91 15.7683 12.2 14.9983 13.27ZM9.73828 5C7.24828 5 5.23828 7.01 5.23828 9.5C5.23828 11.99 7.24828 14 9.73828 14C12.2283 14 14.2383 11.99 14.2383 9.5C14.2383 7.01 12.2283 5 9.73828 5Z" fill="#49454F"/>
</svg>
