<svg width="25" height="25" viewBox="0 0 25 25" fill="none" xmlns="http://www.w3.org/2000/svg">
<path d="M3.34766 9.83107V21.0464C3.34766 22.151 4.24309 23.0464 5.34766 23.0464H19.6459C20.7504 23.0464 21.6459 22.151 21.6459 21.0464V9.83105" stroke="#121219" stroke-width="1.5"/>
<path d="M8.94141 22.1253V16.7939C8.94141 15.9655 9.61298 15.2939 10.4414 15.2939H14.5574C15.3858 15.2939 16.0574 15.9655 16.0574 16.7939V22.1253" stroke="#121219" stroke-width="1.5"/>
<path fill-rule="evenodd" clip-rule="evenodd" d="M17.5808 10.4179C16.9748 11.1466 16.0613 11.6105 15.0394 11.6105C14.0175 11.6105 13.104 11.1466 12.498 10.4179C11.892 11.1466 10.9784 11.6105 9.95658 11.6105C8.9347 11.6105 8.02119 11.1466 7.41516 10.4179C6.80913 11.1466 5.89562 11.6105 4.87374 11.6105C3.31072 11.6105 2.00289 10.5259 1.65847 9.06903C1.50255 8.40951 1.74507 7.80938 2.00695 7.39785L4.64788 3.24782C5.16103 2.44144 6.05059 1.95312 7.00639 1.95312H17.9896C18.9454 1.95312 19.835 2.44144 20.3481 3.24782L22.989 7.39785C23.2509 7.80938 23.4934 8.40951 23.3375 9.06903C22.9931 10.5259 21.6853 11.6105 20.1222 11.6105C19.1004 11.6105 18.1869 11.1466 17.5808 10.4179ZM5.93434 4.06647C6.16759 3.69994 6.57193 3.47798 7.00639 3.47798H17.9896C18.4241 3.47798 18.8284 3.69994 19.0616 4.06647L21.7026 8.21651C21.8559 8.45742 21.8756 8.62513 21.8536 8.7182C21.6681 9.5026 20.9624 10.0857 20.1222 10.0857C19.1397 10.0857 18.3433 9.28918 18.3433 8.30667H16.8184C16.8184 9.28918 16.0219 10.0857 15.0394 10.0857C14.0574 10.0857 13.2612 9.29 13.2604 8.30818V8.30667H11.7356L11.7356 8.30818C11.7348 9.29 10.9386 10.0857 9.95658 10.0857C8.97407 10.0857 8.17758 9.28918 8.17758 8.30667H6.65273C6.65273 9.28918 5.85625 10.0857 4.87374 10.0857C4.03364 10.0857 3.32786 9.5026 3.14241 8.7182C3.12041 8.62513 3.1401 8.45742 3.29341 8.21651L5.93434 4.06647Z" fill="#121219"/>
</svg>
