<svg width="61" height="61" viewBox="0 0 61 61" fill="none" xmlns="http://www.w3.org/2000/svg">
<path d="M20.1172 13.8286L20.674 10.4876C21.0781 8.06292 23.176 6.28575 25.6342 6.28575L34.7145 6.28576C37.1727 6.28576 39.2705 8.06292 39.6746 10.4876L40.2315 13.8286" stroke="#121219" stroke-width="2" stroke-linecap="round"/>
<path d="M20.1164 13.8286H10.0593C7.28206 13.8286 5.03069 16.08 5.03069 18.8572V49.0286C5.03069 51.8058 7.28206 54.0572 10.0593 54.0572H50.2878C53.065 54.0572 55.3164 51.8058 55.3164 49.0286V18.8572C55.3164 16.08 53.065 13.8286 50.2878 13.8286H40.2307" stroke="#121219" stroke-width="2" stroke-linecap="round"/>
<path d="M40.7589 34.153C40.7589 28.29 36.0191 23.5371 30.1724 23.5371C24.3257 23.5371 19.5859 28.29 19.5859 34.153C19.5859 40.016 24.3257 44.7689 30.1724 44.7689C36.0191 44.7689 40.7589 40.016 40.7589 34.153Z" stroke="#121219" stroke-width="2"/>
</svg>
