<svg width="30" height="30" viewBox="0 0 30 30" fill="none" xmlns="http://www.w3.org/2000/svg">
<path d="M13.125 27.5C18.6561 27.5 23.2001 23.2736 23.7036 17.874C23.7549 17.3241 23.3023 16.875 22.75 16.875H14.125C13.5727 16.875 13.125 16.4273 13.125 15.875V7.25C13.125 6.69772 12.6759 6.24507 12.126 6.29635C6.72642 6.79989 2.5 11.3439 2.5 16.875C2.5 22.743 7.25697 27.5 13.125 27.5Z" stroke="#121219" stroke-width="1.5"/>
<path d="M27.4508 11.5014C26.9823 6.77586 23.2241 3.01775 18.4986 2.54924C17.949 2.49475 17.5 2.94772 17.5 3.5V11.5C17.5 12.0523 17.9477 12.5 18.5 12.5H26.5C27.0523 12.5 27.5053 12.051 27.4508 11.5014Z" stroke="#121219" stroke-width="1.5"/>
</svg>
