<svg width="66" height="65" viewBox="0 0 66 65" fill="none" xmlns="http://www.w3.org/2000/svg">
<path d="M33.0013 61.6149C16.9409 61.6149 3.88672 48.5607 3.88672 32.5003C3.88672 16.4399 16.9409 3.38574 33.0013 3.38574C49.0617 3.38574 62.1159 16.4399 62.1159 32.5003C62.1159 48.5607 49.0617 61.6149 33.0013 61.6149ZM33.0013 7.44824C19.1888 7.44824 7.94922 18.6878 7.94922 32.5003C7.94922 46.3128 19.1888 57.5524 33.0013 57.5524C46.8138 57.5524 58.0534 46.3128 58.0534 32.5003C58.0534 18.6878 46.8138 7.44824 33.0013 7.44824Z" fill="#427FDA"/>
<path d="M29.1539 42.1962C28.6122 42.1962 28.0977 41.9795 27.7185 41.6003L20.0539 33.9357C19.2685 33.1503 19.2685 31.8503 20.0539 31.0649C20.8393 30.2795 22.1393 30.2795 22.9247 31.0649L29.1539 37.2941L43.0747 23.3732C43.8602 22.5878 45.1602 22.5878 45.9456 23.3732C46.731 24.1587 46.731 25.4587 45.9456 26.2441L30.5893 41.6003C30.2102 41.9795 29.6956 42.1962 29.1539 42.1962Z" fill="#427FDA"/>
</svg>
